<svg clip-rule="evenodd" fill-rule="evenodd" stroke-linejoin="round" stroke-miterlimit="2"
    viewBox="-175 155 920.468 90" xmlns="http://www.w3.org/2000/svg">
    <g fill-rule="nonzero" transform="matrix(.889656 0 0 .889656 45.4772 152.696)">
        <path
            d="m150.813 2.699c1.466-.136 2.939-.105 4.411-.107 29.501-.002 59.005.002 88.509-.002.008 9.356-.003 18.713.004 28.069-63.535-.005-127.069-.016-190.604-.013 6.136-9.306 12.268-18.615 18.406-27.923 17.998.002 35.995 0 53.995.002.022 7.176-.042 14.351.031 21.525 1.612-6.636 5.774-12.584 11.362-16.488 4.073-2.876 8.919-4.643 13.886-5.063z" />
        <path
            d="m389.953 2.803c2.141-.28 4.304-.2 6.458-.211 31.203.002 62.405-.006 93.606.005-.005 9.354-.002 18.708 0 28.062-41.727.007-83.452-.009-125.179-.022.12-7.549 3.409-14.964 8.899-20.139 4.397-4.213 10.167-6.973 16.216-7.695z" />
        <path
            d="m248.219 2.725c9.4 0 18.801-.002 28.202 0v27.923c-9.401-.002-18.804.004-28.205-.005.003-9.305-.002-18.612.003-27.918z" />
        <path
            d="m336.341 30.648c.006-9.31-.016-18.62.008-27.927 9.397.011 18.795 0 28.192.004.002 9.308 0 18.613.002 27.921-9.401.004-18.802.002-28.202.002z" />
        <path
            d="m507.575 3.814c3.888-.882 8.154.368 11.033 3.107 2.791 2.738 4.159 6.875 3.495 10.737-.602 3.565-2.791 6.9-6.021 8.604-3.624 2.061-8.299 2.047-11.919-.016-3.362-1.785-5.614-5.332-6.082-9.074-.42-3.156.533-6.423 2.431-8.959 1.706-2.272 4.306-3.786 7.063-4.399m.43 1.961c-3.151.673-5.956 2.878-7.166 5.894-1.883 4.124-.478 9.403 3.167 12.081 2.938 2.223 7.093 2.692 10.424 1.086 2.985-1.308 5.101-4.217 5.661-7.4.571-3.109-.449-6.434-2.589-8.743-2.388-2.496-6.112-3.687-9.497-2.918z" />
        <path
            d="m504.812 9.328c2.423.067 4.875-.173 7.28.213 1.763.276 3.06 2.117 2.745 3.871-.236 1.781-1.941 3.058-3.678 3.138 1.041.389 1.69 1.328 2.31 2.194.815 1.186 1.545 2.425 2.314 3.642h-2.574c-.966-1.625-1.761-3.389-3.045-4.799-.813-.924-2.15-.737-3.247-.75-.002 1.849.002 3.702-.002 5.552-.706-.003-1.406-.003-2.103-.003-.002-4.352-.002-8.705 0-13.058m2.105 1.763c-.002 1.317-.002 2.634.002 3.951 1.371-.033 2.763.104 4.122-.158.749-.126 1.444-.684 1.57-1.461.22-.953-.448-1.956-1.39-2.165-1.417-.276-2.871-.131-4.304-.167z" />
        <path
            d="m248.216 31.847c9.403.48 18.806.957 28.207 1.455.004 11.51.002 23.023 0 34.533-.062 1.606.158 3.254.928 4.684 1.373 2.705 4.329 4.499 7.364 4.453 13.394.004 26.79.002 40.184.002 1.497-.038 3.005.093 4.493-.107 2.713-.408 5.141-2.285 6.236-4.799.542-1.192.741-2.511.715-3.813-.002-10.62.002-21.24-.002-31.862 9.403.471 18.801.964 28.202 1.45.004 12.61-.002 25.22.004 37.83 31.129-.003 62.261 0 93.392-.003 1.104 0 2.259.085 3.298-.377 1.821-.726 3.092-2.625 3.058-4.591.002-1.958-1.288-3.837-3.118-4.537-.815-.351-1.712-.351-2.576-.402-20.647-1.281-41.296-2.531-61.945-3.802-7.78-.231-15.573-2.913-21.595-7.901-4.937-4.087-8.477-9.865-9.708-16.17 32.713 1.65 65.423 3.344 98.147 4.735 7.109.482 13.958 3.797 18.797 9.018 3.938 4.198 6.576 9.601 7.404 15.297.445 2.865.296 5.77.307 8.657-.076 7.067-2.943 14.033-7.806 19.15-5.241 5.606-12.806 8.966-20.49 8.992-32.541.009-65.085-.002-97.629.007-.018-7.562.018-15.122-.018-22.681-1.359 7.1-5.574 13.596-11.526 17.704-4.79 3.374-10.675 5.121-16.529 4.975-18.806-.002-37.612-.002-56.416-.002-2.669-.016-5.359.111-7.999-.356-6.836-1.088-13.165-4.881-17.418-10.329-2.838-3.604-4.768-7.917-5.548-12.436-1.434 7.371-5.909 14.071-12.145 18.248-3.447 2.332-7.411 3.9-11.526 4.533-2.121.353-4.273.36-6.416.34h-122.181c-.004-22.939-.002-45.88-.002-68.819 41.389 2.683 82.774 5.414 124.162 8.11 6.347-.004 12.696 2.075 17.719 5.974 4.844 3.711 8.446 9.041 9.979 14.955-.005-10.704 0-21.411-.003-32.115m-122.678 43.826c30.994-.007 61.99.002 92.986-.005 2.301.031 4.439-1.77 4.821-4.035.427-2.105-.732-4.382-2.662-5.306-1.142-.61-2.47-.501-3.718-.61-21.171-1.331-42.347-2.625-63.52-3.944-6.016-.753-11.93-2.839-16.86-6.414-5.359-3.851-9.445-9.559-11.022-15.997-.062 12.104-.016 24.207-.025 36.311z" />
        <path
            d="m4.952 103.739c15.686-23.791 31.369-47.585 47.053-71.381 10.813.611 21.624 1.237 32.437 1.87-14.855 23.176-29.732 46.337-44.592 69.511-11.632.007-23.265.005-34.898 0z" />
    </g>
</svg>